<svg id="Layer_1" data-name="Layer 1" xmlns="http://www.w3.org/2000/svg" xmlns:xlink="http://www.w3.org/1999/xlink" viewBox="0 0 2639.4 2500"><defs><style>.cls-1,.cls-2,.cls-3{opacity:0.25;isolation:isolate;}.cls-1{fill:url(#linear-gradient);}.cls-2{fill:url(#linear-gradient-2);}.cls-3{fill:url(#linear-gradient-3);}.cls-4{fill:#82b378;}.cls-5{fill:#a8d29f;}.cls-6{fill:#2c3a64;}.cls-7{fill:#2b478b;}.cls-8{fill:#233862;}.cls-9{fill:#ffb27d;}.cls-10{fill:#ff9843;}.cls-11{fill:#ed985f;}.cls-12{fill:#fff;}.cls-13{fill:#ed7d2b;}.cls-14{fill:#fcecdb;}.cls-15{fill:#efcbab;}.cls-16{fill:#f99746;}.cls-17{opacity:0.5;}.cls-18{fill:#cde0fb;}.cls-19{fill:#b1cff2;}.cls-20{fill:#afcdfb;}.cls-21{fill:#ffad76;}.cls-22{fill:#739af0;}.cls-23{fill:#172b4c;}.cls-24{fill:#5486d6;}.cls-25{fill:#23407a;}.cls-26{fill:#ebf3fa;}.cls-27{fill:#ffbf94;}.cls-28{fill:#2e3552;}</style><linearGradient id="linear-gradient" x1="2616.67" y1="270.95" x2="2616.67" y2="2500" gradientTransform="matrix(1, 0, 0, -1, -1361.11, 2500)" gradientUnits="userSpaceOnUse"><stop offset="0" stop-color="#7094fb"/><stop offset="1" stop-color="#f31e61"/></linearGradient><linearGradient id="linear-gradient-2" x1="2888.05" y1="59" x2="2888.05" y2="2500" xlink:href="#linear-gradient"/><linearGradient id="linear-gradient-3" x1="1793.02" y1="320.84" x2="3840.24" y2="2038.66" gradientTransform="matrix(1, 0, 0, -1, -1361.11, 2500)" gradientUnits="userSpaceOnUse"><stop offset="0" stop-color="#f31e61"/><stop offset="1" stop-color="#7094fb"/></linearGradient></defs><path class="cls-1" d="M1760.08,2227.42c562.9-17.86,797.63-596.1,743.44-1250.12C2470.57,579.54,2292.32,211.59,1967.89,0H609.49C468.73,89.43,362.1,198.56,278.72,298.41-56.53,699.87-99,1378.41,204,1726S1111.37,2248,1760.08,2227.42Z" transform="translate(0)"/><path class="cls-2" d="M1220.42,2351.54c476.21,202.76,1133.09,48.56,1377.86-338.28q21.61-34.15,40.61-70.73V405.21c-1.18-3.6-2.34-7.2-3.54-10.8-63-189.29-182.46-318-337.69-394.41H1371.44q-66.95,21.5-134.1,47.89C692.4,262.54,298.89,759.32,446.11,1424,574.89,2005.11,940.62,2232.41,1220.42,2351.54Z" transform="translate(0)"/><path class="cls-3" d="M2628.05,1487l.11-.32a190,190,0,0,0,11.24-64.39V722.6a191.72,191.72,0,0,0-42.76-121.12c-62.47-76.69-150.64-144-271.46-197C1811.45,178.8,571.24,337.41,211.53,1041.24c-123,240.65-118.71,498-33.61,732C337,2210.58,754.82,2500,1220.18,2500h0c411.78,0,804.68-175.07,1078.15-482.92C2452.9,1843.08,2568.26,1653.42,2628.05,1487Z" transform="translate(0)"/><path class="cls-4" d="M1741.35,1218.09s-36.09-47.84,2.24-74.41c0,0,27.68-14.48,49.35-11.81,0,0-34,49.76-24.4,55.53s34-58.19,34-58.19,61.08-2.1,80,8.51c0,0-54.56,39.23-43.78,42.44s69.43-35,69.43-35,55.91,13.14,50.74,47.43-25.3,43.71-33.8,42.26-57.36-23.69-58.89-16.75,27.17,31.75,48.21,34.13c0,0-42.58,41.45-68.27,27.12s-26.69-34.58-42.73-43.14-30.12-9.43-23.79-1.32,35.74,17.45,44.14,34.74,16.16,29.07-11,23.24-70.41-28.66-70.93-51.73Z" transform="translate(0)"/><path class="cls-4" d="M1931.09,1191.81s-153.11-15.5-189.74,26.28c0,0-8.9,22-33.24,41l-4.21,9.57s28.35-26.38,38-27.48C1741.89,1241.17,1730.38,1185.86,1931.09,1191.81Z" transform="translate(0)"/><path class="cls-4" d="M1708.11,1259.08s-34.47,22.3-39.47,65.69l5.94.91s13.34-44.36,33.45-60.77S1708.11,1259.08,1708.11,1259.08Z" transform="translate(0)"/><path class="cls-5" d="M1564.29,1103.71s-80-44.81-42.68-105.62c0,0,29.87-37.34,61.88-46.94,0,0-17.07,90.68,0,92.82s11.74-102.43,11.74-102.43,84.28-40.54,117.36-37.34c0,0-52.28,88.56-35.21,86.42s75.75-91.75,75.75-91.75,86.42-16,100.29,35.21-8.53,76.81-21.34,80-95,2.14-92.82,12.81,57.61,27.74,88.56,18.13c0,0-34.15,84.29-79,80s-58.68-32-86.42-34.14-48,5.34-34.14,12.8,60.82,2.45,83.22,21.5,40.54,30.78-1.07,39.32-116.29,3.2-131.23-28.81Z" transform="translate(0)"/><path class="cls-4" d="M1813.94,950.08s-224,72.55-249.65,153.63c0,0,1.06,36.28-21.34,77.89v16s23.47-54.41,36.27-61.88C1579.22,1135.72,1529.08,1065.31,1813.94,950.08Z" transform="translate(0)"/><path class="cls-4" d="M1543,1181.6s-34.55,52.47-14.86,116.34l8.89-2.39s-8.63-70.35,9.45-105.73S1543,1181.6,1543,1181.6Z" transform="translate(0)"/><path class="cls-5" d="M1142.31,1126.68s93.12-39.41,59.57-110.58c0,0-28.21-44.54-62.12-58.94,0,0,7.72,101.45-11.25,101.72s-.45-113.67-.45-113.67-87.45-54.64-124.08-55.14c0,0,46.56,103.38,28.11,99s-71.9-109.73-71.9-109.73-92.76-28-114.17,26.43S846,991,859.71,996s103.8,13.85,100.17,25.28-66.5,23.42-99.24,9.15c0,0,27.2,96.5,76.82,97.25s68.18-28,98.84-26.94,52,11.67,35.86,18.17-66.94-4.69-93.8,13.47-48.16,28.82-3.59,43.22,127,17.6,147.3-15.66Z" transform="translate(0)"/><path class="cls-4" d="M887.34,928.06s236.74,106.66,255,198.62c0,0-5.56,39.62,14,87.94l-1.94,17.53s-19.13-62.47-32.25-72.2C1122.07,1160,1185.55,1088.86,887.34,928.06Z" transform="translate(0)"/><path class="cls-4" d="M1156.26,1214.62s31.51,61.68,2.18,129.29l-9.45-3.69s18-76,2.46-117S1156.26,1214.62,1156.26,1214.62Z" transform="translate(0)"/><path class="cls-4" d="M951.31,1355.38c-16.45-23.74-18.29-45.84-18.29-45.84s45.54-32.7,18.69-67.08c0,0-20.69-20.63-40.79-24.27,0,0,16.57,53.91,6.35,56.37s-14.14-61.4-14.14-61.4-54-18.86-73.83-14.65c0,0,37.81,50.21,27.29,50.08S804.31,1198,804.31,1198s-53.59-3.8-58.51,28.25,10.44,46.07,18.44,47.14,57.82-5.2,57.25,1.43-33.09,20.79-52.54,17.07c0,0,26.5,48.86,53.43,43.2s33.45-23.46,50.15-26.65,29.53,0,21.61,5.44-36.77,5.65-49.07,18.75-22.52,21.47,3.34,23.81,70.85-6,77.73-26.48c.3-.89.59-1.74.86-2.56a10,10,0,0,1-.86,2.56c5,2.19,13.42,14.38,19.4,23.78.88,1.61,2.24,3.84,4.22,6.83h0c.82,1.37,1.48,2.49,1.94,3.27,11.42,21.28,11,60.3,11,60.3l5.56.85C975.89,1384.89,951.31,1355.38,951.31,1355.38Z" transform="translate(0)"/><path class="cls-6" d="M647,808.92c-.45-2.46-6.23-28.83-47-24.33,0,0,20.3-.52,25,7.76,0,0-15.16-8.87-25.72-3.78S585,814,585.89,820.38s10,26,17.27,26.77a21.54,21.54,0,0,0,8.5-1.22,98.92,98.92,0,0,0-4,10.52c-11.37,35.59,10,65.65,23.23,60.07,8.46-3.58,13.12,11.06,13.12,11.06L719.36,846S678.56,785.68,647,808.92Z" transform="translate(0)"/><path class="cls-7" d="M745.18,1791l-18.33,6.82s-79.63-110.43-89.43-207.6c-1.75-17.35-1.17-34.15,2.62-49.67,0,0-.78-4.45-2.14-12.31-.63-3.66-1.41-8.08-2.29-13.14-2.59-14.83-6.16-35.13-10.23-58.24-9.37-53.17-21.5-121.15-30.93-171.13l4.94-1.58,53.44-17.25,11-35.08,39.8-10.48s8.89,17.4,16.83,99.55c1.47,10.78,2.8,22.66,3.81,35.55a703.55,703.55,0,0,1-3.79,143.9c-1.83,14.28-4.13,29-7,44.17-2.1,11.11-2.41,26.24-1.53,43.62C716,1667.6,745.18,1791,745.18,1791Z" transform="translate(0)"/><path class="cls-8" d="M724.32,1356.48l-86.43,171.8c-.63-3.66-1.41-8.08-2.29-13.14-2.59-14.83-6.16-35.13-10.23-58.24-9.37-53.17-21.5-121.15-30.93-171.13l4.94-1.58,53.44-17.25,11-35.08,39.8-10.48s8.89,17.4,16.83,99.55C722,1331.71,723.31,1343.59,724.32,1356.48Z" transform="translate(0)"/><path class="cls-7" d="M686.3,1243.43l-2-17.15c-33.52,8.9-123.07-24.88-123.07-24.88s-32.47,28.54-28.21,97c2.08,33.39,5.88,175.29,9.85,217.28,1.44,15.22,2.69,26,3.21,30.37h0a6,6,0,0,1-1,3.71,198.06,198.06,0,0,0-14.65,30.82c-39,103.83,6,231.69,6,231.69l11.67-4.7s25.59-142.3,46.38-205.16c3.53-10.67,6.91-19,10-24.05,9-14.59,17.43-38.43,25-66.78,14.39-53.61,26-123.34,33.68-177.17C664.31,1334.47,686.3,1243.43,686.3,1243.43Z" transform="translate(0)"/><path class="cls-9" d="M740.34,1105.92a24.31,24.31,0,0,0,2.06,2c28.65,26.69,67.23,50.29,87.87,55.49,13.58,3.48,43.51-1.17,68.37-6.29,16.56-3.26,31-6.87,36.93-8.29,1.9-.44,3-.78,3-.78l-2.6-16.76s-14.9-1.18-33.41-3.27c-25.79-3-58.47-7.68-66.84-12.63-19.42-11.54-53.5-59.94-80.84-90.37-1.43-1.66-2.85-3.25-4.26-4.82q-1.54-1.71-3.08-3.36a3.48,3.48,0,0,0-.81-.77c-1.26-1.2-2.32-2.33-3.36-3.31,0-.13-.22-.22-.39-.32-4.86-4.88-13.38-10.8-13.38-10.8-4.78-2.73-8.71-3.25-11.48-.93A44.31,44.31,0,0,0,711,1010.8c-.74,1.38-1.48,2.9-2.17,4.55a10.4,10.4,0,0,0-1.15,2.83,58,58,0,0,0-3.71,22.66,72.25,72.25,0,0,0,4.5,22.42C713.25,1076.71,725.32,1091.7,740.34,1105.92Z" transform="translate(0)"/><path class="cls-9" d="M715.4,1035.22c-9.72,6.34-21.81,11.45-36.91,14.49-56.57,11.4-76.77-36.71-83.94-69.55a48.31,48.31,0,0,1,19.21-5.31c4.07-.37,8.36-.57,11.9-.64,6.45-4.66,16.41-24.18,19.35-54.84l2.63.79,44,13.37s-2.42,14-3.79,27.3c-1.07,10.4-1.47,20.35.44,22.84,3.43.85,5.49,1.39,5.49,1.39v.05A285.43,285.43,0,0,1,715.4,1035.22Z" transform="translate(0)"/><path class="cls-10" d="M735.09,1070.56c-.26,1.2-.58,2.38-.93,3.6-9.93,33.2-18,165.93-18,165.93,5.26,16.59-91.19,20-144.38,12.32-19.34-2.78-33-7-33.9-12.63-9.51-21.45,13.78-61.52,27.22-81.88a51.51,51.51,0,0,0,4.34-8,50.94,50.94,0,0,0,4.2-22.32c-.4-10.53-1.3-20.75-2.4-30.32-2.06-18-4.81-33.81-6.25-45h0c2.79-2.78,5.52-5.36,8.06-7.82a81.37,81.37,0,0,0,9.64-10.68c2.62-3.71,4.07-7.32,3.75-11.12A55.07,55.07,0,0,0,585,1014c-.34-1.35-.71-2.7-1.12-4a118.48,118.48,0,0,0-12.27-26.4c14.4-8.42,42.15-8.68,42.15-8.68s.18,1.52.54,4c1.34,9.95,5.14,35.46,9,39.82,4.85,5.44,81.56,21.21,84.23,12.49s-13.21-44.67-13.81-46v0C718.24,991,728.91,997.56,729.4,998h0C716.1,1009.56,742.09,1038.74,735.09,1070.56Z" transform="translate(0)"/><path class="cls-11" d="M691.6,933.54s-2.44,14-3.8,27.3c-25-3.22-36-27.44-40.16-40.67Z" transform="translate(0)"/><path class="cls-9" d="M698.72,947s-59.48-5-55.82-42-1.54-62.54,36.58-60.94,44.1,16.45,45.88,29.1S714.28,947.31,698.72,947Z" transform="translate(0)"/><path class="cls-6" d="M725.65,852.43c-8.06-12-15.24-10.3-19.46-7.34C675.52,824,652,848.28,652,848.28c-6.63,26.14-27.29,39.43-27.29,39.43s10.15,7.77,35.74,3.85c7.82-1.2,15.17-5.93,21.61-11.92a139.12,139.12,0,0,1-26.76,26.73c31.19-10.8,47.3-51,48.93-55.31,3.3,3.62,9.74,11.4,11.22,18.55,2,9.72,1.41,29.24,7.13,29.15C722.55,898.76,737.75,870.49,725.65,852.43Z" transform="translate(0)"/><path class="cls-9" d="M991,1129.05c-6,5.66-12,19.83-30.28,19.57a265,265,0,0,0-32.71,2.14c-2.49.44-3.94.61-3.94.61l-.65-20.75a3.45,3.45,0,0,0,.85-.07c4.43-.67,26.9-4.12,35.8-10,10-6.7,33.34-.49,33.34-.49S997,1123.49,991,1129.05Z" transform="translate(0)"/><path class="cls-8" d="M604.3,1821.82H512s-2.22-14.08,2.61-24.75c4.62-10.25,11.86-14.9,10.12-27.3,5.87,6,15.43,12.81,28.78,11,1.64,2.65,10.56,16.84,16,20.77C575.54,1805.88,602.44,1804.34,604.3,1821.82Z" transform="translate(0)"/><path class="cls-8" d="M802.55,1821.82H710.22s-3.45-14.73,2.61-24.75c5.36-8.87,3.31-13.92-.67-21.26a35.79,35.79,0,0,0,15.55,2.93c4.6-.26,9.47-2.35,13.74-4.83,4,4.53,21,23.82,26.3,27.64C773.79,1805.88,800.69,1804.34,802.55,1821.82Z" transform="translate(0)"/><path class="cls-12" d="M684.53,925.57s.83,4.9,12.88,4.91c0,0,10.12,0,10.15-5.31C707.56,925.17,698,920.78,684.53,925.57Z" transform="translate(0)"/><path class="cls-13" d="M584.42,1160.68c-3.65,23.14-20.38,69.56-12.6,91.73-19.34-2.78-33-7-33.9-12.63-9.51-21.45,13.78-61.52,27.22-81.88a51.51,51.51,0,0,0,4.34-8,50.94,50.94,0,0,0,4.2-22.32c-.4-10.53-1.3-20.75-2.4-30.32C571.28,1097.22,588.31,1136.1,584.42,1160.68Z" transform="translate(0)"/><path class="cls-10" d="M715.12,1004.6c.64,20.56,15.51,77,19,69.56,4-8.5,19.64-40.8,27-42-.39-1.49-30.4-34.68-31.71-34.29A60.43,60.43,0,0,0,715.12,1004.6Z" transform="translate(0)"/><path class="cls-9" d="M573.54,1296.28l-15.32,10.19s-3.87-4.84-10-12.59c-1.83-2.33-2.82-3.73-2.82-3.73-4.85-6.26-10.5-13.93-16.67-22.25l-.1-.1c-10.35-14.53-21.71-31-30.41-46-6-10.59-10.74-20.39-13-28.1a16.79,16.79,0,0,1-.55-2.33c-4.5-19.55,3.75-58.37,16.88-96.24,1.8-5.24,3.7-10.39,5.52-15.43,7-18.57,14.83-36,22.72-50.14a147.69,147.69,0,0,1,13.66-21.39,62,62,0,0,1,4.55-5.43c.85-1,1.69-1.88,2.53-2.76,9.2.77,28.5,4.42,42.83,21-.25.87-.5,1.74-.76,2.62-5.8,18.69-14.74,41.62-24,64.09-5.05,12.35-10.21,24.6-14.73,36.12-2.87,6.88-5.46,13.45-7.8,19.52-4.41,11.61-7.68,21.27-9,28-.88,4.39.37,12.66,2.74,22.82,4.07,17.71,11.81,41.57,19,61.82,2.94,8.45,5.84,16.31,8.26,22.84C570.89,1289.38,573.54,1296.28,573.54,1296.28Z" transform="translate(0)"/><path class="cls-10" d="M580.24,1079.43c-15.3-23.1-59.15-33-59.15-33,24.74-78.52,89.71-71.24,89.71-71.24S587.16,1056.84,580.24,1079.43Z" transform="translate(0)"/><path class="cls-9" d="M558.22,1306.47s4,5.94,4.48,10.22,4.27,18.44,9.22,22.93,16.19,13.5,17.76,12.15,6.13-12,1.91-19.45c-1.91-3.39-4.49-12.82-7.9-15.11-4.14-2.77-10.15-20.93-10.15-20.93Z" transform="translate(0)"/><path class="cls-9" d="M573.6,1298.58s12.19,6.19,13.83,11.13,8.46,14.93,7.76,16.08-11.33-5.51-14.93-11.66S573.6,1298.58,573.6,1298.58Z" transform="translate(0)"/><path class="cls-13" d="M863.49,1241l446.09-267a77.78,77.78,0,0,1,79.91,0l446.1,267v435.28l-972.1-48.74Z" transform="translate(0)"/><rect class="cls-14" x="947.16" y="1048.18" width="804.75" height="695.46"/><path class="cls-15" d="M971.72,1078.53a8.28,8.28,0,1,1,8.29,8.27h0A8.28,8.28,0,0,1,971.72,1078.53Z" transform="translate(0)"/><path class="cls-15" d="M1710.31,1078.53a8.27,8.27,0,1,1,8.27,8.27A8.27,8.27,0,0,1,1710.31,1078.53Z" transform="translate(0)"/><rect class="cls-15" x="980" y="1077.63" width="738.58" height="1.8"/><rect class="cls-15" x="979.1" y="1075.24" width="1.8" height="738.58"/><rect class="cls-15" x="1717.97" y="1075.24" width="1.8" height="738.58"/><polygon class="cls-10" points="1835.59 1239.84 1835.59 1821.82 863.48 1821.82 863.48 1239.84 1349.54 1530.83 1835.59 1239.84"/><path class="cls-13" d="M863.49,1821.82l445.24-319.22a70,70,0,0,1,81.61,0l445.25,319.22Z" transform="translate(0)"/><path class="cls-15" d="M1497.89,1144.53H1204.51a7.77,7.77,0,0,1-7.75-7.74h0a7.79,7.79,0,0,1,7.75-7.75h293.38a7.79,7.79,0,0,1,7.75,7.75h0A7.77,7.77,0,0,1,1497.89,1144.53Z" transform="translate(0)"/><path class="cls-15" d="M1573.5,1175.61H1128.89a7.77,7.77,0,0,1-7.75-7.74h0a7.79,7.79,0,0,1,7.75-7.75h444.57a7.79,7.79,0,0,1,7.75,7.75h0A7.77,7.77,0,0,1,1573.5,1175.61Z" transform="translate(0)"/><path class="cls-15" d="M1515.89,1272h-321.7a5.63,5.63,0,0,1-5.61-5.6h0a5.63,5.63,0,0,1,5.61-5.6h321.7a5.62,5.62,0,0,1,5.6,5.6h0A5.62,5.62,0,0,1,1515.89,1272Z" transform="translate(0)"/><path class="cls-15" d="M1226.49,1301.29h-90.7a5.63,5.63,0,0,1-5.6-5.61h0a5.62,5.62,0,0,1,5.6-5.6h90.7a5.62,5.62,0,0,1,5.6,5.6h0A5.63,5.63,0,0,1,1226.49,1301.29Z" transform="translate(0)"/><path class="cls-15" d="M1363.27,1301.29H1253.7a5.62,5.62,0,0,1-5.61-5.61h0a5.63,5.63,0,0,1,5.61-5.6h109.57a5.62,5.62,0,0,1,5.6,5.6h0A5.63,5.63,0,0,1,1363.27,1301.29Z" transform="translate(0)"/><path class="cls-15" d="M1574.24,1301.29H1384.82a5.63,5.63,0,0,1-5.61-5.61h0a5.63,5.63,0,0,1,5.61-5.6h189.42a5.63,5.63,0,0,1,5.61,5.6h0A5.63,5.63,0,0,1,1574.24,1301.29Z" transform="translate(0)"/><path class="cls-15" d="M1364,1335.32H1187.81a5.63,5.63,0,0,1-5.61-5.6h0a5.63,5.63,0,0,1,5.61-5.61H1364a5.63,5.63,0,0,1,5.61,5.61h0A5.63,5.63,0,0,1,1364,1335.32Z" transform="translate(0)"/><path class="cls-15" d="M1522.23,1335.32H1383.46a5.63,5.63,0,0,1-5.61-5.6h0a5.63,5.63,0,0,1,5.61-5.61h138.77a5.63,5.63,0,0,1,5.6,5.61h0A5.62,5.62,0,0,1,1522.23,1335.32Z" transform="translate(0)"/><path class="cls-16" d="M1413.48,1404.52a223.1,223.1,0,0,1-33.88,22.83,27.6,27.6,0,0,0,1.7-9.39c-.21-4-3.43-5.8-6.65-7.47-.8-.41-1.55-.85-2.28-1.29a4.11,4.11,0,0,0,1.06-4.78c-1.36-3.05-5.17-2.56-6.46.26a5.38,5.38,0,0,0-.44,1.53,3.93,3.93,0,0,1-1.26-1c2-3.67,3.82-7.41,5.52-11.22a2.09,2.09,0,0,0-.79-2.39,6.56,6.56,0,0,0-9,1.23c-2.7,3.19-2,8-.73,11.64q.13.38.3.75-3.77,6.78-8.14,13.18l-.82-.82a18.12,18.12,0,0,1-2.28-2.74,39.55,39.55,0,0,0,2.51-10.94,2.08,2.08,0,0,0-3-2,8.81,8.81,0,0,0-5.53,9.54,11.79,11.79,0,0,0,1.28,4,36.74,36.74,0,0,1-3.15,5.52,1.92,1.92,0,0,0,.44,2.69,1.24,1.24,0,0,0,.27.17c-1.28,4.28-3,8.67-6,11.75-2.42,2.52-6.92,4.43-9.86,1.44-1.86-1.89-2.1-5.06-2.36-7.56a138.61,138.61,0,0,1-.86-18.78,28.57,28.57,0,0,1,1.43-8.7c.62-1.73,1.49-4.34,2.33-1.37.41,1.46-.15,3.72-.3,5.21-.27,2.65,3.85,3,4.11.32.31-3.11,1.7-9.63-1.81-11.58-2.92-1.62-5.6.7-7,3.12-4.86,8.72-2.92,20.7-2.19,30.18.58,7.56,3.41,16.84,13.06,14.43,9.09-2.26,12.43-13.71,14.52-21.59a2.09,2.09,0,0,0-.07-1.33l.11-.19c.37.38.75.75,1.14,1.13s1,1,1.54,1.5c-1,1.32-1.93,2.63-2.92,3.93a2.1,2.1,0,0,0,.16,2.52c3.06,3.68,8.55,1,8.45-3.58a7.05,7.05,0,0,0-.69-2.82q4.3-6.21,8-12.75a6.46,6.46,0,0,0,5,2h.42a15.22,15.22,0,0,0,3.59,2.73,24.2,24.2,0,0,1,3.58,1.93c2,1.6,1.38,3.43.94,5.71a87.77,87.77,0,0,1-2.39,8.9c-4.15,2.38-8.25,5.42-9.65,10.2-1.27,4.36-.14,9,3.6,11.66a2.1,2.1,0,0,0,2.9-.6,1.87,1.87,0,0,0,.2-.4c2.35-5.77,4.46-11.62,6.28-17.57a2.06,2.06,0,0,1,.17-.57c3.67-2.08,7.51-3.92,11.14-6.07a211.41,211.41,0,0,0,27.36-19.34C1418.25,1405.93,1415.53,1402.83,1413.48,1404.52Zm-50.13-5.49c0-1.65.83-4.68,2.74-4.64q-1.29,2.79-2.68,5.53a9.07,9.07,0,0,1-.06-.92Zm5.24,47.67c-1.74-3.25.75-7.26,3.59-9.91q-1.68,5-3.59,9.91Z" transform="translate(0)"/><g class="cls-17"><polygon class="cls-18" points="1332.16 762.58 1374.07 855.03 1219.63 925.03 1177.72 832.58 1275.9 843.81 1332.16 762.58"/><path class="cls-19" d="M1177.72,832.58l154.44-70L1286,840.4a17.14,17.14,0,0,1-17.73,8.14Z" transform="translate(0)"/></g><g class="cls-17"><polygon class="cls-18" points="424.22 1366.3 446.26 1425.41 347.52 1462.23 325.47 1403.12 385.87 1414.27 424.22 1366.3"/><path class="cls-19" d="M325.47,1403.12l98.75-36.82-32,46.28a10.68,10.68,0,0,1-11.34,4.3Z" transform="translate(0)"/></g><g class="cls-17"><polygon class="cls-18" points="2115.26 1014.44 2084.28 1130.52 1890.38 1078.78 1921.36 962.7 2002.82 1046.61 2115.26 1014.44"/><path class="cls-19" d="M1921.36,962.7l193.9,51.74-100.65,36.62a20.28,20.28,0,0,1-22.33-5.85Z" transform="translate(0)"/></g><path class="cls-20" d="M381.67,1627.68h0c-4.68,0-9.23-.08-13.51-.19a.91.91,0,0,1-.88-.93.89.89,0,0,1,.91-.87h0c4.27.11,8.8.18,13.48.19a.9.9,0,0,1,0,1.8Zm13.51-.1a.9.9,0,1,1,0-1.8h0c4.32-.07,8.86-.19,13.5-.34a.88.88,0,0,1,.93.83v0a.91.91,0,0,1-.87.93c-4.65.15-9.2.27-13.53.34Zm-40.48-.67h-.06c-4.75-.28-9.29-.66-13.49-1.1a.9.9,0,1,1,.2-1.79c4.16.44,8.67.81,13.4,1.1a.89.89,0,0,1,.85.94v.06A.91.91,0,0,1,354.7,1626.91Zm67.5-.21a.89.89,0,0,1-.9-.86.91.91,0,0,1,.86-.94c4.33-.2,8.86-.43,13.48-.7a.9.9,0,0,1,.11,1.8c-4.63.26-9.17.5-13.51.7Zm27-1.55a.9.9,0,1,1-.06-1.8h0q6.64-.43,13.47-1a.9.9,0,1,1,.14,1.8h0q-6.84.52-13.49,1Zm-121.31-1.22h-.16a105.64,105.64,0,0,1-13.23-3.17.9.9,0,0,1,.55-1.71,105.49,105.49,0,0,0,13,3.11.9.9,0,0,1-.16,1.78Zm148.23-.83a.9.9,0,0,1-.07-1.79q6.66-.57,13.45-1.18a.9.9,0,0,1,.26,1.78h-.1q-6.8.61-13.46,1.18Zm26.91-2.44a.9.9,0,1,1-.08-1.8q6.66-.64,13.43-1.34a.9.9,0,0,1,.19,1.79h0l-13.45,1.35Zm26.88-2.76a.9.9,0,0,1-.12-1.8h0q6.68-.72,13.43-1.49a.9.9,0,1,1,.2,1.79q-6.75.76-13.43,1.48Zm-227.29-2.82a.9.9,0,0,1-.53-.17,17,17,0,0,1-5.59-6.38,40.41,40.41,0,0,1-2-5.09.9.9,0,0,1,1.65-.71.64.64,0,0,1,.06.18,39.7,39.7,0,0,0,1.91,4.85,15.52,15.52,0,0,0,5,5.7.88.88,0,0,1,.21,1.23l0,0a.86.86,0,0,1-.69.37Zm254.14-.2a.9.9,0,0,1-.11-1.8h0q6.69-.78,13.41-1.6a.91.91,0,0,1,1,.79.9.9,0,0,1-.78,1l-13.42,1.6Zm26.82-3.26a.9.9,0,0,1-.11-1.79l13.35-1.7a.92.92,0,0,1,1,.78.9.9,0,0,1-.78,1l-13.36,1.7Zm26.73-3.44a.9.9,0,0,1-.12-1.79l13.39-1.79a.9.9,0,1,1,.36,1.76l-.12,0q-6.69.91-13.39,1.79Zm26.81-3.62a.9.9,0,0,1-.89-.78.88.88,0,0,1,.76-1l13.38-1.87a.9.9,0,0,1,1,.76.92.92,0,0,1-.77,1l-13.38,1.87Zm26.75-3.78a.9.9,0,0,1-.9-.9.91.91,0,0,1,.77-.89l13.36-1.94a.88.88,0,0,1,1,.74v0a.89.89,0,0,1-.75,1L664,1600.75Zm26.73-3.92a.9.9,0,0,1-.89-.76.92.92,0,0,1,.76-1l13.35-2a.9.9,0,0,1,1,.75.92.92,0,0,1-.76,1l-13.36,2Zm26.71-4a.9.9,0,0,1-.14-1.79l13.35-2.07a.9.9,0,0,1,.28,1.78h0l-13.35,2.07Zm-422.84-2h-.18a.88.88,0,0,1-.7-1v0a28.37,28.37,0,0,1,6-12.28.9.9,0,0,1,1.39,1.13,26.7,26.7,0,0,0-5.66,11.51.88.88,0,0,1-.85.61ZM744,1588.75a.9.9,0,0,1-.14-1.79l13.34-2.12a.88.88,0,1,1,.25,1.74l-13.34,2.13Zm26.67-4.28a.9.9,0,0,1-.14-1.78l13.33-2.18a.9.9,0,0,1,.3,1.78h0l-13.34,2.17Zm26.67-4.37a.9.9,0,0,1-.15-1.79l13.33-2.22a.9.9,0,0,1,.43,1.75l-.13,0-13.33,2.23Zm26.65-4.48a.89.89,0,0,1-.88-.75.88.88,0,0,1,.73-1l13.32-2.28a.88.88,0,0,1,.27,1.74l-13.33,2.27Zm26.64-4.57a.9.9,0,0,1-.15-1.78l13.32-2.33a.91.91,0,0,1,1,.73.92.92,0,0,1-.73,1L850.76,1571ZM310.28,1570a.9.9,0,0,1-.52-1.64,88.24,88.24,0,0,1,11.8-6.83.9.9,0,0,1,.79,1.62h0a87.39,87.39,0,0,0-11.56,6.68.83.83,0,0,1-.51.08Zm567-3.58a.88.88,0,0,1-.15-1.75l13.31-2.37a.9.9,0,0,1,.32,1.77l-13.32,2.37Zm26.63-4.77a.9.9,0,0,1-.16-1.78l13.32-2.42a.9.9,0,0,1,.32,1.77l-13.32,2.42Zm-569.51-3.7a.9.9,0,0,1-.31-1.74c4-1.49,8.32-2.93,12.88-4.29a.9.9,0,0,1,.65,1.68l-.14,0c-4.52,1.35-8.82,2.78-12.77,4.25a.85.85,0,0,1-.32,0Zm596.14-1.16a.9.9,0,0,1-.93-.87.91.91,0,0,1,.77-.92l13.33-2.48a.9.9,0,1,1,.33,1.77h0l-13.33,2.48Zm26.68-5a.9.9,0,0,1-.17-1.78l1.54-.29a.91.91,0,0,1,1.08.72.77.77,0,0,1,0,.15c0,.75-.09.76-2.3,1.19ZM360.27,1550a.9.9,0,0,1-.21-1.78c4.2-1,8.66-2,13.23-3a.89.89,0,0,1,1.1.63.9.9,0,0,1-.63,1.11l-.11,0c-4.55.93-9,1.92-13.16,3Zm26.5-5.46a.9.9,0,0,1-.15-1.79c4.31-.74,8.81-1.46,13.38-2.12a.9.9,0,0,1,1,.8.88.88,0,0,1-.73,1q-6.83,1-13.34,2.11Zm26.77-3.9a.9.9,0,0,1-.87-.93.91.91,0,0,1,.77-.86c4.43-.54,9-1,13.47-1.48a.9.9,0,0,1,.17,1.79c-4.49.45-9,.94-13.43,1.48Zm26.94-2.66a.9.9,0,0,1-.06-1.8c8.35-.64,13.55-.86,13.61-.86a.88.88,0,0,1,.93.83v0a.89.89,0,0,1-.85.93h0s-5.22.23-13.55.87Z" transform="translate(0)"/><polygon class="cls-20" points="987.28 1599.05 1098.09 1536.25 997 1542.22 1004.8 1559.3 983.92 1582.43 987.28 1599.05"/><polygon class="cls-12" points="1098.09 1536.25 981.97 1557.53 897.39 1616.27 1098.09 1536.25"/><polygon class="cls-12" points="997 1542.22 1098.09 1536.25 992.35 1505.26 997 1542.22"/><polygon class="cls-20" points="1586.71 773.89 1712.52 793.8 1629.72 735.49 1625.19 753.71 1594.44 758.79 1586.71 773.89"/><polygon class="cls-12" points="1712.52 793.8 1608.42 738.1 1505.67 731.36 1712.52 793.8"/><polygon class="cls-12" points="1629.72 735.49 1712.52 793.8 1649.11 703.68 1629.72 735.49"/><g id="girl_2" data-name="girl 2"><path class="cls-8" d="M1967.67,1283.63s-25.65,1.78-44.58,48c-19.11,46.59,23.62,46.13,9.22,75.81s20.72,47.4,31.38,71.7,64.37,82.94,68.63,109.68,52-27.81,52-27.81,48.55-51.78,31.14-81.87c-28.69-49.58-3.83-60.36-4.73-88S2057.27,1254.24,1967.67,1283.63Z" transform="translate(0)"/><path class="cls-21" d="M1953.75,1449.36s-99.32,43.29-118.18,42.46-135.11-35.4-135.11-35.4l3,20s89.71,51.6,121.07,54.53c30.88,2.88,136.46-27.72,146.66-34.18S1983.37,1455.9,1953.75,1449.36Z" transform="translate(0)"/><path class="cls-9" d="M1945.73,1496.82c9.13,6.33,20.58,11.55,34.94,14.87,53.86,12.44,74.5-33.08,82.25-64.32a46.23,46.23,0,0,0-18.25-5.61c-3.89-.46-8-.76-11.37-.93-6-4.63-15.06-23.59-17.06-53l-2.53.68-42.44,11.61s1.94,13.5,2.89,26.25c.74,10,2,15.77.15,18.1-3.32.72-6.48,4.94-6.48,4.94h0A272.79,272.79,0,0,0,1945.73,1496.82Z" transform="translate(0)"/><path class="cls-11" d="M1971.26,1400.11s2,13.48,2.9,26.25c24-2.41,35.21-25.31,39.55-37.87Z" transform="translate(0)"/><path class="cls-9" d="M1964.08,1412.78s57.08-3.15,54.57-38.67,3.17-59.84-33.38-59.33-42.66,14.56-44.71,26.62S1949.17,1412.68,1964.08,1412.78Z" transform="translate(0)"/><path class="cls-22" d="M2079.18,1612.87c5.15-26.35,22-131.63,5.15-165.5-6-12.17-29.72-13.27-55.7-12.2-8.09,5.22-38.9,24.94-51.56,22.48l-.71-.16c-6-1.5-7-9.43-2-13,0,0-14,2.51-30,5.52-9,1.7-33.37,14.29-33.37,14.29s12.26,22.16,30.34,29.8c-3.08,27.51,1.49,39.64,30,103.16,24.11,53.7-3.25,102-3.25,102s141.92,114.12,142.71,56C2111.33,1711.53,2072.59,1646.55,2079.18,1612.87Z" transform="translate(0)"/><path class="cls-8" d="M1961,1823.34a26.36,26.36,0,0,1-19-11.55l-2.2-3.31c-16.15-24.45-22.44-99.35-58.78-179.14-8.85-19.42-40.62-22.92-49.28-44.88,0,0-21.33-71.17,40.81-73.27s166.41,198,168.06,219C2042.2,1750.55,2081.69,1837,1961,1823.34Z" transform="translate(0)"/><path class="cls-23" d="M1714,1821.71h88.44s3.31-14.11-2.5-23.71c-5.14-8.49-3.17-13.33.64-20.35a34.36,34.36,0,0,1-14.9,2.8c-4.4-.25-9.06-2.25-13.15-4.63-3.81,4.34-20.1,22.82-25.2,26.48C1741.56,1806.45,1715.79,1805,1714,1821.71Z" transform="translate(0)"/><path class="cls-24" d="M2069.89,1475s11.51,104.73-63.13,126.67-95.85-96.36-35.57-104.87S2069.89,1475,2069.89,1475Z" transform="translate(0)"/><path class="cls-8" d="M1829.71,1531.76c-5.32,39.92-26.12,165.94-62.8,227.42-11.83,19.82,29.8,30.93,30,30.87,5.58-1.46,14.88-10.36,19.17-14.23,29.81-26.82,90.26-102.82,90.26-163.82,0-29.71.52-86.45-21.08-100.87C1872,1502.29,1831.83,1515.9,1829.71,1531.76Z" transform="translate(0)"/><path class="cls-7" d="M2013.72,1821.71s-3.28-4.56-9-13.23c-6.8-10.3-14.33-30.57-23.46-56.56-9.59-27.28-21-60.84-35.19-95.76-4.39-10.78-9-21.69-14-32.59-8.85-19.42-33.2-16.74-41.86-38.7,0,0-33.8-76.12,28.33-78.22s180.21,203.64,187,223.57C2113,1752,2149.19,1842.61,2013.72,1821.71Z" transform="translate(0)"/><path class="cls-8" d="M1778.89,1821.71h88.44s3.31-14.11-2.5-23.71c-5.14-8.49-3.17-13.33.64-20.35a34.36,34.36,0,0,1-14.9,2.8c-4.4-.25-9.06-2.25-13.15-4.63-3.8,4.34-20.1,22.82-25.2,26.48C1806.48,1806.45,1780.71,1805,1778.89,1821.71Z" transform="translate(0)"/><path class="cls-25" d="M1981.26,1751.92c-9.59-27.28-21-60.84-35.19-95.76,3.71-26.46,11.73-49.61,25.2-58.94C1971.27,1597.22,2004,1698.47,1981.26,1751.92Z" transform="translate(0)"/><path class="cls-7" d="M1881.34,1528.93c-5.33,39.93-12.83,168.77-49.51,230.25-11.83,19.82,29.8,30.93,30,30.87,5.58-1.46,14.88-10.36,19.17-14.23,29.78-26.84,90.24-102.84,90.24-163.78,0-29.71-34.86-84.07-56.47-98.49C1901.49,1504.67,1883.46,1513.07,1881.34,1528.93Z" transform="translate(0)"/><path class="cls-26" d="M1771.89,1424.23s-4.53-11.51-12.78-10.76-83.13,10.76-83.13,10.76,8.72,2.08,12,7.8l34.54,101.8h88.61Z" transform="translate(0)"/><path class="cls-27" d="M2062.89,1447.37s-125.53,46.22-144.39,45.28c-12.19-.61-113.52-36.23-113.52-36.23l-9.09,17.21s98.62,63.38,125.74,63.07c53.53-.62,143.85-33.48,154-39.94S2092.54,1453.91,2062.89,1447.37Z" transform="translate(0)"/><path class="cls-27" d="M1805,1456.42s-9.09-14-18.15-14.41-24.7,6.17-30.06,7.2-20.58,6-16,13.38,25.52,9.06,34.58,7.41,20.59,3.63,20.59,3.63Z" transform="translate(0)"/><path class="cls-27" d="M1789.32,1442.44s-14.4-6.61-18.52-7.84-3.29,0-2.06,3.92,8.65,7.62,8.65,8.85S1789.32,1442.44,1789.32,1442.44Z" transform="translate(0)"/><path class="cls-12" d="M1953.4,1392.35s5.39-2.13,20.58-.9c0,0-.81,5.92-12,6.51C1955.63,1398.29,1953.4,1392.35,1953.4,1392.35Z" transform="translate(0)"/><path class="cls-22" d="M1998.25,1470.17s11.22,35.54,49.78,43.62c0,0,63.67-19.61,32-63C2080,1450.8,2048.66,1427.51,1998.25,1470.17Z" transform="translate(0)"/><path class="cls-12" d="M1675.89,1424.23s-8.32,3.18-2,14l81-10.79s-2.81-12.52,3.54-13.88Z" transform="translate(0)"/><path class="cls-21" d="M1704.94,1450.8c1.92-7.7,1.8-9.56-2.55-14.26-2.87-3.1-7.27,4.6-9.55,9.24-.84-2-2.26-5.39-2.74-5.55-.7-.24,1,10.34,1,10.34h0a9.84,9.84,0,0,0,0,1.33h0a22.43,22.43,0,0,0,11.8,24l-2.92-8.57C1701.66,1467,1703,1458.61,1704.94,1450.8Z" transform="translate(0)"/><path class="cls-8" d="M1961.89,1322.63s12-4.22,17.86,8.08,7.67,41.68,31,44.07S2035,1325,2035,1325l-58.47-23.09-30.88,19.49Z" transform="translate(0)"/><path class="cls-8" d="M1961.89,1322.63s-13.18.28-16.19,11.37,1.69,31.79-5.6,33.29-13.93-34.49.18-46.18S1961.89,1322.63,1961.89,1322.63Z" transform="translate(0)"/></g><path class="cls-9" d="M927.78,1130s13.18-5,14.68-8.44,5.85-5,11.1-7.35,8.39-6.75,9.14-6.15.9,3.6-1.2,5.85-11,18-14.34,19.79S927.78,1130,927.78,1130Z" transform="translate(0)"/><path class="cls-4" d="M2296.18,1821.07h-84.77c-4.54-3.86,3.14-12.61,11.17-13.19,3.49-.27,7.9.46,12.94,1.53,1.17-15.5,7.83-85.15,32.94-82.35,28.22,3.14,0,30.67-8,47-5.92,12.08-12.15,29.4-15,37.57,2.29.49,4.66,1,7.09,1.43,3.74-11.49,17.66-50.13,35.36-47.88,20.79,2.63,12.44,18.13-2.3,27.32-10.81,6.77-24.08,16.38-30.39,21a89.39,89.39,0,0,0,16.58,1.33C2286.34,1814.49,2293.43,1818.77,2296.18,1821.07Z" transform="translate(0)"/><path class="cls-4" d="M396.4,1822.79s-32.22-88.49-54.84-81S396.4,1822.79,396.4,1822.79Z" transform="translate(0)"/><path class="cls-4" d="M384.06,1822.79c-2.74,0-54.16-53.36-57.58-39.39S384.06,1822.79,384.06,1822.79Z" transform="translate(0)"/><path class="cls-4" d="M438.89,1822.79s-21.27-19.5-48.19-14.42-38.42,10.64-55.33,6.79-25.55,7.63-25.55,7.63Z" transform="translate(0)"/><path class="cls-28" d="M2420.09,1827.81H164.51a3,3,0,0,1-3-3h0a3,3,0,0,1,3-3H2420.09a3,3,0,0,1,3,3h0A3,3,0,0,1,2420.09,1827.81Z" transform="translate(0)"/><rect class="cls-14" x="910.56" y="1707.91" width="201.36" height="79.55" rx="21.66"/><path class="cls-15" d="M1060.89,1727.69H934.75a2.56,2.56,0,0,1-2.56-2.56h0a2.56,2.56,0,0,1,2.56-2.56h126.14a2.56,2.56,0,0,1,2.56,2.56h0a2.56,2.56,0,0,1-2.56,2.56Z" transform="translate(0)"/><path class="cls-15" d="M957.13,1738.74H934.75a2.57,2.57,0,0,1-2.56-2.57h0a2.58,2.58,0,0,1,2.56-2.56h22.38a2.58,2.58,0,0,1,2.56,2.56h0A2.57,2.57,0,0,1,957.13,1738.74Z" transform="translate(0)"/><path class="cls-15" d="M1027.61,1738.74H966a2.57,2.57,0,0,1-2.56-2.57h0a2.58,2.58,0,0,1,2.56-2.56h61.64a2.59,2.59,0,0,1,2.57,2.56h0A2.58,2.58,0,0,1,1027.61,1738.74Z" transform="translate(0)"/><path class="cls-15" d="M1060.89,1759.2H934.75a2.57,2.57,0,0,1-2.56-2.57h0a2.58,2.58,0,0,1,2.56-2.56h126.14a2.58,2.58,0,0,1,2.56,2.56h0A2.57,2.57,0,0,1,1060.89,1759.2Z" transform="translate(0)"/><path class="cls-15" d="M980.54,1770.24H934.75a2.56,2.56,0,0,1-2.56-2.56h0a2.56,2.56,0,0,1,2.56-2.56h45.79a2.56,2.56,0,0,1,2.56,2.56h0a2.56,2.56,0,0,1-2.56,2.56Z" transform="translate(0)"/><path class="cls-15" d="M1036.26,1770.24H990.47a2.56,2.56,0,0,1-2.56-2.56h0a2.56,2.56,0,0,1,2.56-2.56h45.79a2.56,2.56,0,0,1,2.56,2.56h0a2.56,2.56,0,0,1-2.56,2.56Z" transform="translate(0)"/></svg>